<svg width="1280" height="194" viewBox="0 0 1280 194" fill="none" xmlns="http://www.w3.org/2000/svg">
<mask id="mask0_1984_3268" style="mask-type:alpha" maskUnits="userSpaceOnUse" x="0" y="0" width="1280" height="194">
<rect width="1280" height="194" fill="#D9D9D9"/>
</mask>
<g mask="url(#mask0_1984_3268)">
<path d="M-9 556.5V57.354L259.006 101.224C302.705 108.377 347.286 108.261 390.947 100.881L572.738 70.1517C618.225 62.4627 664.702 62.7405 710.094 70.9726L869.495 99.8809C913.834 107.922 959.209 108.451 1003.72 101.446L1284 57.3393V556.5H-9Z" stroke="#FFF48D" stroke-width="4"/>
<path d="M-9 153V652.146L259.006 608.276C302.705 601.123 347.286 601.239 390.947 608.619L572.738 639.348C618.225 647.037 664.702 646.759 710.094 638.527L869.495 609.619C913.834 601.578 959.209 601.049 1003.72 608.054L1284 652.161V153H-9Z" stroke="#FFF48D" stroke-width="4"/>
<path fill-rule="evenodd" clip-rule="evenodd" d="M259.156 114.161L0 71.5V129.333V573.5V631.333L259.156 588.672C302.751 581.496 347.233 581.591 390.797 588.955L572.404 619.653C618.12 627.381 664.831 627.102 710.451 618.828L870.172 589.862C914.081 581.899 959.013 581.339 1003.11 588.207L1280 631.333V573.5V129.333V71.5L1003.11 114.626C959.013 121.494 914.081 120.934 870.172 112.971L710.451 84.0047C664.831 75.7312 618.12 75.4521 572.404 83.1797L390.797 113.878C347.233 121.242 302.751 121.337 259.156 114.161Z" fill="#FFF48D"/>
</g>
</svg>
