<?xml version="1.0" standalone="no"?>
<!DOCTYPE svg PUBLIC "-//W3C//DTD SVG 1.1//EN" "http://www.w3.org/Graphics/SVG/1.1/DTD/svg11.dtd" >
<svg xmlns="http://www.w3.org/2000/svg">
<metadata>Generated by IcoMoon</metadata>
<defs>
<font id="icomoon" horiz-adv-x="1024">
<font-face units-per-em="1024" ascent="960" descent="-64" />
<missing-glyph horiz-adv-x="1024" />
<glyph unicode="&#x20;" horiz-adv-x="512" d="" />
<glyph unicode="&#xe900;" glyph-name="about-sunny" d="M390.808 464.213c-1.28 0-2.133 0-3.413 0-2.133 0.427-5.12 0.427-7.68 0-123.733 3.84-217.173 101.12-217.173 221.013 0 122.027 99.413 221.44 221.44 221.44 122.028 0 221.441-99.413 221.441-221.44-0.427-119.893-94.293-217.173-213.335-221.013-0.427 0-0.853 0-1.28 0zM383.982 842.667c-86.613 0-157.44-70.827-157.44-157.44 0-85.333 66.56-154.027 151.467-157.013 2.56 0.427 8.107 0.427 13.653 0 83.628 3.84 149.335 72.533 149.761 157.013 0 86.613-70.827 157.44-157.441 157.44zM705.69 458.667c-1.28 0-2.56 0-3.84 0.427-17.493-1.707-35.413 10.667-37.12 28.16s8.96 33.28 26.453 35.413c5.12 0.427 10.667 0.427 15.36 0.427 62.293 3.413 110.933 54.613 110.933 117.333 0 64.853-52.48 117.333-117.333 117.333-17.493-0.427-32 14.080-32 31.573s14.507 32 32 32c99.84 0 181.333-81.493 181.333-181.333 0-98.133-76.8-177.493-174.507-181.333-0.427 0-0.853 0-1.28 0zM391.237-2.133c-83.627 0-167.68 21.333-231.253 64-59.307 39.253-91.733 93.013-91.733 151.467s32.427 112.64 91.733 152.32c128 84.907 335.36 84.907 462.506 0 58.88-39.253 91.733-93.013 91.733-151.467s-32.427-112.64-91.733-152.32c-64-42.667-147.627-64-231.253-64zM195.397 311.893c-40.96-27.307-63.147-62.293-63.147-98.987 0-36.267 22.613-71.253 63.147-98.133 106.24-71.253 285.44-71.253 391.68 0 40.96 27.307 63.147 62.293 63.147 98.987 0 36.267-22.613 71.253-63.147 98.133-106.24 70.827-285.44 70.827-391.68 0zM782.49 74.667c-14.933 0-28.16 10.24-31.147 25.6-3.413 17.493 7.68 34.133 24.747 37.973 26.88 5.547 51.627 16.213 70.827 31.147 24.32 18.347 37.547 41.387 37.547 65.707s-13.227 47.36-37.12 65.28c-18.773 14.507-42.24 24.747-69.973 31.147-17.067 3.84-28.16 20.907-24.32 38.4 3.84 17.067 20.907 28.16 38.4 24.32 36.693-8.107 68.693-22.613 94.72-42.667 39.68-29.867 62.293-72.107 62.293-116.48s-23.040-86.613-62.72-116.907c-26.453-20.48-59.733-35.413-96.427-42.667-2.56-0.853-4.693-0.853-6.827-0.853z" />
<glyph unicode="&#xe901;" glyph-name="arrow-right" d="M16 448c0 26.509 21.49 48 48 48h896c26.509 0 48-21.491 48-48s-21.491-48-48-48h-896c-26.51 0-48 21.491-48 48zM993.939 481.941c18.746-18.745 18.746-49.137 0-67.882l-320-319.998c-18.746-18.746-49.135-18.746-67.88 0s-18.745 49.133 0 67.878l320.002 320.002c18.746 18.745 49.133 18.745 67.878 0zM606.059 801.941c18.745 18.745 49.135 18.745 67.88 0l320-320c18.746-18.745 18.746-49.137 0-67.882s-49.133-18.745-67.878 0l-320.002 320c-18.745 18.745-18.745 49.137 0 67.882z" />
<glyph unicode="&#xe902;" glyph-name="arrow-side-left" d="M878.080 849.919l-365.716-365.714c-19.995-19.995-19.995-52.413 0-72.408l365.716-365.717c19.99-19.99 52.414-19.99 72.404 0 19.997 19.997 19.997 52.414 0 72.411l-329.509 329.509 329.509 329.511c19.997 19.994 19.997 52.413 0 72.408-19.99 19.995-52.414 19.995-72.404 0zM366.079 776.776l-292.571-292.571c-19.995-19.995-19.995-52.413 0-72.408l292.571-292.574c19.994-19.99 52.413-19.99 72.408 0 19.994 19.997 19.994 52.416 0 72.411l-256.368 256.367 256.368 256.368c19.994 19.994 19.994 52.413 0 72.408s-52.413 19.994-72.408 0z" />
<glyph unicode="&#xe903;" glyph-name="arrow-side-right" d="M145.921 849.919l365.714-365.714c19.995-19.995 19.995-52.413 0-72.408l-365.714-365.717c-19.994-19.99-52.413-19.99-72.408 0-19.995 19.997-19.995 52.414 0 72.411l329.511 329.509-329.511 329.511c-19.995 19.994-19.995 52.413 0 72.408s52.413 19.995 72.408 0zM657.921 776.776l292.57-292.571c19.997-19.995 19.997-52.413 0-72.408l-292.57-292.574c-19.994-19.99-52.413-19.99-72.408 0-19.994 19.997-19.994 52.416 0 72.411l256.368 256.367-256.368 256.368c-19.994 19.994-19.994 52.413 0 72.408s52.413 19.994 72.408 0z" />
<glyph unicode="&#xe904;" glyph-name="arrow-single-big" d="M730.893 859.202c-15.023 14.97-39.339 14.926-54.306-0.096l-383.787-385.152c-14.967-15.019-14.927-39.33 0.089-54.298l384-382.848c15.019-14.976 39.33-14.938 54.306 0.081 14.972 15.019 14.938 39.33-0.081 54.306l-356.815 355.742 356.687 357.959c14.972 15.023 14.929 39.336-0.094 54.306z" />
<glyph unicode="&#xe905;" glyph-name="book-blog" d="M512 17.92c-12.8 0-25.6 2.987-36.267 8.96-79.787 43.52-220.16 89.6-308.053 101.12l-12.373 1.707c-55.893 6.827-101.973 59.307-101.973 116.053v515.413c0 33.707 13.227 64.427 37.547 86.613s55.893 32.853 89.173 29.867c93.867-7.253 235.52-54.187 315.733-104.533l10.24-5.973c2.987-1.707 9.387-1.707 11.947-0.427l6.827 4.267c80.213 50.347 221.867 98.133 316.16 106.24 0.853 0 4.267 0 5.12 0 31.147 2.987 63.147-8.107 87.040-30.293 24.32-22.187 37.547-52.907 37.547-86.613v-514.986c0-57.173-46.080-109.227-102.4-116.053l-14.080-1.707c-87.893-11.52-228.693-58.027-306.773-101.12-10.24-5.973-22.613-8.533-35.413-8.533zM169.813 814.080c-13.653 0-26.027-4.693-35.84-13.653-10.667-9.813-16.64-23.893-16.64-39.253v-515.413c0-25.173 21.76-49.493 46.080-52.907l12.8-1.707c96-12.8 243.2-61.013 328.533-107.52 3.84-1.707 9.387-2.133 11.52-1.28 85.333 47.36 233.387 96 329.813 108.8l14.507 1.707c24.32 2.987 46.080 27.733 46.080 52.907v514.986c0 15.787-5.973 29.44-16.64 39.68-11.093 9.813-25.173 14.507-40.96 13.653-0.853 0-4.267 0-5.12 0-81.493-7.253-212.907-51.2-284.587-96l-6.827-4.693c-23.467-14.507-56.747-14.507-79.36-0.427l-10.24 5.973c-72.96 44.8-204.373 88.32-288 95.147-1.707 0-3.413 0-5.12 0zM512 53.76c-17.493 0-32 14.507-32 32v640c0 17.493 14.507 32 32 32s32-14.507 32-32v-640c0-17.92-14.507-32-32-32zM330.667 565.76h-96c-17.493 0-32 14.507-32 32s14.507 32 32 32h96c17.493 0 32-14.507 32-32s-14.507-32-32-32zM362.667 437.76h-128c-17.493 0-32 14.507-32 32s14.507 32 32 32h128c17.493 0 32-14.507 32-32s-14.507-32-32-32z" />
<glyph unicode="&#xe906;" glyph-name="calendar" d="M341.333 714.667c-17.493 0-32 14.507-32 32v128c0 17.493 14.507 32 32 32s32-14.507 32-32v-128c0-17.493-14.507-32-32-32zM682.667 714.667c-17.493 0-32 14.507-32 32v128c0 17.493 14.507 32 32 32s32-14.507 32-32v-128c0-17.493-14.507-32-32-32zM874.667 540.161h-725.333c-17.493 0-32 14.507-32 32s14.507 32 32 32h725.333c17.493 0 32-14.507 32-32s-14.507-32-32-32zM682.667-10.667h-341.333c-155.733 0-245.333 89.6-245.333 245.333v362.667c0 155.733 89.6 245.333 245.333 245.333h341.333c155.733 0 245.333-89.6 245.333-245.333v-362.667c0-155.733-89.6-245.333-245.333-245.333zM341.333 778.667c-122.027 0-181.333-59.307-181.333-181.333v-362.667c0-122.027 59.307-181.333 181.333-181.333h341.333c122.027 0 181.333 59.307 181.333 181.333v362.667c0 122.027-59.307 181.333-181.333 181.333h-341.333zM362.667 341.333c-5.547 0-11.093 1.28-16.213 3.413s-9.813 5.12-14.080 8.96c-3.84 4.267-6.828 8.96-8.961 14.080s-3.413 10.667-3.413 16.213c0 11.093 4.694 22.187 12.374 30.293 4.267 3.84 8.96 6.827 14.080 8.96 7.68 3.413 16.214 4.267 24.747 2.56 2.56-0.427 5.12-1.28 7.68-2.56 2.56-0.853 5.12-2.133 7.68-3.84 2.133-1.707 4.266-3.413 6.4-5.12 1.707-2.133 3.84-4.267 5.12-6.4 1.707-2.56 2.988-5.12 3.841-7.68 1.28-2.56 2.133-5.12 2.56-7.68 0.427-2.987 0.853-5.547 0.853-8.533 0-11.093-4.694-22.187-12.374-30.293-8.107-7.68-19.2-12.373-30.293-12.373zM512 341.333c-11.093 0-22.187 4.693-30.293 12.373-1.707 2.133-3.413 4.267-5.12 6.4-1.707 2.56-2.987 5.12-3.84 7.68-1.28 2.56-2.133 5.12-2.56 7.68-0.427 2.987-0.853 5.547-0.853 8.533 0 5.547 1.28 11.093 3.413 16.213s5.12 9.813 8.96 14.080c11.947 11.947 31.147 15.787 46.507 8.96 5.547-2.133 9.813-5.12 14.080-8.96 7.68-8.107 12.373-19.2 12.373-30.293 0-2.987-0.427-5.547-0.853-8.533-0.427-2.56-1.28-5.12-2.56-7.68-0.853-2.56-2.133-5.12-3.84-7.68-1.707-2.133-3.413-4.267-5.12-6.4-4.267-3.84-8.533-6.827-14.080-8.96-5.12-2.133-10.667-3.413-16.213-3.413zM362.667 192c-5.547 0-11.093 1.28-16.213 3.413s-9.813 5.12-14.080 8.96c-3.84 4.267-6.828 8.533-8.961 14.080-2.133 5.12-3.413 10.667-3.413 16.213 0 11.093 4.694 22.187 12.374 30.293 4.267 3.84 8.96 6.827 14.080 8.96 15.787 6.827 34.56 2.987 46.506-8.96 1.707-2.133 3.84-4.267 5.12-6.4 1.707-2.56 2.988-5.12 3.841-7.68 1.28-2.56 2.133-5.12 2.56-8.107 0.427-2.56 0.853-5.547 0.853-8.107 0-11.093-4.694-22.187-12.374-30.293-8.107-7.68-19.2-12.373-30.293-12.373z" />
<glyph unicode="&#xe907;" glyph-name="call" d="M238.507 839.111c-20.581 0-41.864-8.293-63.804-29.89l-0.539-0.53c-19.046-17.968-32.176-37.541-40.384-58.403l-0.073-0.187c-8.449-21.122-12.818-44.342-12.818-69.142 0-38.812 8.944-80.607 27.913-125.673 19.262-45.334 45.988-91.641 79.681-138.494 34.271-47.061 72.719-92.14 115.379-135.227 43.098-42.672 88.208-81.146 135.759-115.883 46.692-33.991 93.421-60.752 139.757-80.492 45.494-19.388 87.256-28.302 125.156-28.302 25.355 0 48.424 4.688 69.524 13.477l0.193 0.080c20.571 8.431 39.35 21.749 57.128 41.341 9.882 10.906 17.351 22.443 23.188 34.81 5.052 10.684 7.265 21.294 7.265 31.323 0 6.309-1.24 12.299-4.028 19.433-1.712 3.664-4.699 7.595-10.951 11.918l-0.341 0.239-140.925 100.056c-9.216 6.246-16.714 10.348-23.046 12.937-5.706 2.332-9.671 2.901-12.567 2.901-3.374 0-6.866-0.768-11.804-3.777l-1.001-0.609-1.041-0.54c-5.456-2.844-12.794-8.283-22.027-17.51l-0.165-0.171-32.262-31.829c-0.034-0.034-0.063-0.068-0.097-0.102-10.985-10.94-25.401-17.567-42.536-17.567-6.593 0-14.541 0.74-23.154 3.971l-0.762 0.284-0.757 0.324c-1.803 0.774-3.476 1.542-4.631 2.071l-0.336 0.154-1.434 0.654c-0.34 0.148-0.476 0.205-0.48 0.205l-1.757 0.705-1.673 0.882c-17.609 9.324-38.132 23.871-61.371 43.537l-0.046 0.040c-23.538 19.985-46.407 41.552-69.733 64.444l-0.479 0.472c-22.823 23.261-43.807 46.448-63.369 69.052l-0.258 0.298c-19.402 22.93-34.389 43.395-43.749 60.556l-1.516 2.779-0.972 2.916c-0.019 0.047-0.157 0.4-0.59 1.423-0.046 0.11-0.096 0.228-0.15 0.354-0.53 1.251-1.398 3.298-2.263 5.602l-0.711 1.896-0.491 1.965c-1.437 5.748-2.342 11.655-2.342 18.437 0 15.322 5.242 30.053 16.948 41.915l32.715 34.005c8.629 8.629 14.525 16.342 18.086 22.642l0.283 0.501 0.299 0.491c2.929 4.812 3.776 8.723 3.776 11.806 0 2.145-0.645 6.295-3.099 12.021l-0.232 0.542c-2.578 6.302-6.616 13.678-13.008 22.556l-0.144 0.201-99.223 139.855c-3.771 5.447-8.44 9.168-14.251 11.851l-0.488 0.225c-5.561 2.669-12.204 4.182-19.172 4.182zM125.088 860.165c32.615 31.997 70.971 50.057 113.418 50.057 16.839 0 33.997-3.574 49.703-11.065 16.22-7.533 31.035-19.082 42.548-35.639l98.813-139.274c8.867-12.33 15.856-24.462 20.934-36.805 5.163-12.126 8.731-25.796 8.731-39.759 0-17.2-5.011-33.592-13.84-48.278-7.454-13.055-17.575-25.563-29.175-37.197l-27.753-28.848c0.055-0.138 0.112-0.279 0.168-0.422 6.248-10.901 17.357-26.391 34.326-46.458 18.732-21.641 38.584-43.554 59.996-65.389 22.653-22.228 44.072-42.383 65.673-60.729 20.342-17.209 36.083-28.092 47.404-34.264 0.063-0.028 0.119-0.051 0.182-0.080l27.602 27.233c0.028 0.028 0.057 0.063 0.085 0.091 11.782 11.77 24.548 22.283 38.292 29.639 14.416 8.569 30.225 13.539 47.775 13.539 13.318 0 26.419-2.846 39.487-8.191 12.373-5.063 24.411-11.998 36.398-20.15l0.597-0.404 141.062-100.159c15.582-10.826 27.904-24.622 35.59-42.092l0.245-0.552 0.222-0.563c5.564-13.915 9.37-29.093 9.37-46.484 0-20.69-4.614-41.66-14.069-61.69-8.664-18.347-19.962-35.817-34.822-52.213-24.013-26.465-51.297-46.427-82.734-59.329-30.071-12.516-62.441-18.91-96.785-18.91-49.141 0-100.392 11.566-153.031 33.991-51.791 22.067-103.184 51.621-153.763 88.445-50.532 36.91-98.433 77.784-144.039 122.948l-0.244 0.245c-45.161 45.596-86.012 93.468-122.52 143.61l-0.121 0.165c-36.238 50.381-65.803 101.308-87.487 152.356l-0.044 0.104c-21.977 52.195-33.506 103.397-33.506 153.317 0 33.193 5.86 65.407 17.866 95.458 12.231 31.047 31.429 59.135 57.445 83.747z" />
<glyph unicode="&#xe908;" glyph-name="call-contact" d="M744.533-10.667c-48.213 0-98.987 11.52-151.467 33.707-51.2 21.76-102.827 51.627-153.173 87.893-49.92 36.693-98.133 77.653-143.787 122.453-45.227 45.653-86.187 93.867-122.453 143.36-36.693 51.2-66.133 102.4-87.040 151.893-22.187 52.907-33.28 104.107-33.28 152.32 0 33.28 5.973 64.853 17.493 94.293 11.947 30.293 31.147 58.453 57.173 82.773 32.853 32.427 70.4 48.64 110.507 48.64 16.64 0 33.707-3.84 48.213-10.667 16.64-7.68 30.72-19.2 40.96-34.56l98.987-139.52c8.96-12.373 15.787-24.32 20.48-36.267 5.547-12.8 8.533-25.6 8.533-37.973 0-16.213-4.693-32-13.653-46.933-6.4-11.52-16.213-23.893-28.587-36.267l-29.013-30.293c0.427-1.28 0.853-2.133 1.28-2.987 5.12-8.96 15.36-24.32 34.987-47.36 20.907-23.893 40.533-45.653 60.16-65.707 25.173-24.747 46.080-44.373 65.707-60.587 24.32-20.48 40.107-30.72 49.493-35.413l-0.853-2.133 31.147 30.72c13.227 13.227 26.027 23.040 38.4 29.44 23.467 14.507 53.333 17.067 83.2 4.693 11.093-4.693 23.040-11.093 35.84-20.053l141.653-100.693c15.787-10.667 27.307-24.32 34.133-40.533 6.4-16.213 9.387-31.147 9.387-46.080 0-20.48-4.693-40.96-13.653-60.16s-20.053-35.84-34.133-51.2c-24.32-26.88-50.773-46.080-81.493-58.453-29.44-11.947-61.44-18.347-95.147-18.347zM238.507 842.667c-23.467 0-45.227-10.24-66.133-30.72-19.627-18.347-33.28-38.4-41.813-60.16-8.96-22.187-13.227-45.653-13.227-70.827 0-39.68 9.387-82.773 28.16-127.147 19.2-45.227 46.080-92.16 80.213-139.093s72.96-92.587 115.627-135.68c42.667-42.24 88.747-81.493 136.107-116.053 46.080-33.707 93.44-61.013 140.373-80.64 72.96-31.147 141.227-38.4 197.547-14.933 21.76 8.96 40.96 22.613 58.453 42.24 9.813 10.667 17.493 22.187 23.893 35.84 5.12 10.667 7.68 21.76 7.68 32.853 0 6.827-1.28 13.653-4.693 21.333-1.28 2.56-3.84 7.253-11.947 12.8l-141.653 100.693c-8.533 5.973-16.213 10.24-23.467 13.227-9.387 3.84-13.227 7.68-27.733-1.28-8.533-4.267-16.213-10.667-24.747-19.2l-32.427-32c-16.64-16.213-42.24-20.053-61.867-12.8l-11.52 5.12c-17.493 9.387-37.973 23.893-60.587 43.093-20.48 17.493-42.667 37.973-69.547 64.427-20.907 21.333-41.813 43.947-63.573 69.12-20.053 23.467-34.56 43.52-43.52 60.16l-5.12 12.8c-2.56 9.813-3.413 15.36-3.413 21.333 0 15.36 5.547 29.013 16.213 39.68l32 33.28c8.533 8.533 14.933 16.64 19.2 23.893 3.413 5.547 4.693 10.24 4.693 14.507 0 3.413-1.28 8.533-3.413 13.653-2.987 6.827-7.68 14.507-13.653 22.613l-98.987 139.947c-4.267 5.973-9.387 10.24-15.787 13.227-6.827 2.987-14.080 4.693-21.333 4.693zM595.2 319.573l-6.827-29.013 11.52 29.867c-2.133 0.427-3.84 0-4.693-0.853zM789.333 544c-17.493 0-32 14.507-32 32 0 15.36-15.36 47.36-40.96 74.667-25.173 26.88-52.907 42.667-76.373 42.667-17.493 0-32 14.507-32 32s14.507 32 32 32c41.387 0 84.907-22.187 122.88-62.72 35.413-37.973 58.453-84.48 58.453-118.613 0-17.493-14.507-32-32-32zM938.667 544c-17.493 0-32 14.507-32 32 0 147.2-119.467 266.667-266.667 266.667-17.493 0-32 14.507-32 32s14.507 32 32 32c182.187 0 330.667-148.48 330.667-330.667 0-17.493-14.507-32-32-32z" />
<glyph unicode="&#xe909;" glyph-name="coach" d="M512-10.667c-25.6 0-50.773 5.973-71.253 17.493l-201.813 116.48c-83.627 56.32-89.173 66.56-89.173 154.88v211.627c0 88.32 5.547 98.56 87.467 153.6l203.946 117.76c40.533 23.467 101.547 23.467 142.080 0l201.813-116.48c83.627-56.32 89.173-66.56 89.173-154.88v-211.627c0-88.32-5.547-98.56-87.467-153.6l-203.947-117.76c-20.053-11.947-45.653-17.493-70.827-17.493zM512 714.667c-14.507 0-29.013-2.987-39.253-8.96l-201.813-116.48c-57.173-38.827-57.173-38.827-57.173-99.413v-211.627c0-60.587 0-60.587 59.307-100.693l200.106-115.2c20.48-11.947 57.6-11.947 78.080 0l201.813 116.48c57.173 38.827 57.173 38.827 57.173 99.413v211.627c0 60.587 0 60.587-59.307 100.693l-200.107 115.2c-9.813 5.973-24.32 8.96-38.827 8.96zM746.667 602.453c-17.493 0-32 14.507-32 32v112.213c0 67.413-28.587 96-96 96h-213.333c-67.413 0-96-28.587-96-96v-109.227c0-17.493-14.507-32-32-32s-32 14.080-32 32v109.227c0 103.253 56.747 160 160 160h213.333c103.253 0 160-56.747 160-160v-112.213c0-17.493-14.507-32-32-32zM581.547 207.787c-8.96 0-18.347 1.707-27.733 5.547l-41.813 16.213-41.813-16.64c-22.613-8.96-45.654-6.827-62.72 5.547s-26.027 33.707-24.747 58.027l2.56 44.8-28.587 34.56c-15.36 19.2-20.48 41.387-13.653 61.867 6.4 20.053 23.893 35.413 47.36 41.387l43.52 11.093 24.32 37.973c26.027 40.96 81.92 40.96 107.947 0l24.32-37.973 43.52-11.093c23.467-5.973 40.96-21.333 47.36-41.387s1.28-42.667-14.080-61.44l-28.587-34.56 2.56-44.8c1.28-24.32-7.68-45.227-24.747-58.027-10.24-7.253-22.187-11.093-34.987-11.093zM406.186 396.8l28.587-34.56c9.813-11.52 15.36-29.867 14.507-44.8l-2.56-44.8 41.813 16.64c14.080 5.547 32.853 5.547 46.933 0l41.813-16.64-2.56 44.8c-0.853 14.933 4.693 32.853 14.507 44.8l28.587 34.56-43.52 11.093c-14.507 3.84-29.867 14.933-37.973 27.307l-23.893 37.547-24.32-37.547c-8.107-12.8-23.467-23.893-37.973-27.733l-43.947-10.667z" />
<glyph unicode="&#xe90a;" glyph-name="course" d="M674.556 98.987c-11.093 0-22.613 0.427-34.987 1.707-22.187 1.707-47.356 5.973-73.382 12.373l-71.68 17.067c-196.695 46.507-261.122 150.613-215.042 346.88l41.813 178.773c9.387 40.533 20.48 73.386 34.133 100.693 73.385 151.467 213.758 137.814 313.598 114.347l71.253-16.64c99.84-23.467 162.987-60.587 198.4-117.334 34.991-56.747 40.533-129.706 17.071-229.546l-41.818-178.347c-36.693-156.16-113.067-229.973-239.36-229.973zM559.782 821.333c-71.253 0-116.48-29.44-146.771-92.587-11.093-23.040-20.907-51.626-29.44-87.466l-41.813-178.773c-37.973-161.28 5.973-231.68 167.255-270.080l71.676-17.067c23.040-5.547 44.8-8.96 64.427-10.667 115.627-11.52 173.653 39.253 206.084 178.773l41.809 178.347c19.2 82.346 16.64 139.946-8.96 181.333s-75.947 69.546-158.72 88.746l-71.253 16.64c-35.413 8.533-66.987 12.8-94.293 12.8zM355.415 10.667c-109.653 0-179.627 65.707-224.427 204.373l-54.613 168.533c-60.587 187.734-6.4 293.547 180.48 354.134l67.413 21.76c22.187 6.827 38.827 11.52 53.76 14.080 11.947 2.56 24.32-2.133 31.573-11.947s8.533-22.613 3.413-33.707c-11.093-22.613-20.907-51.2-29.013-87.040l-41.813-178.774c-37.973-161.28 5.973-231.68 167.255-270.080l71.68-17.067c23.040-5.547 44.8-8.96 64.427-10.667 13.653-1.28 24.747-10.667 28.587-23.893 3.413-13.227-1.707-26.88-12.8-34.56-28.16-19.2-63.573-35.413-108.373-49.92l-67.413-22.187c-49.067-15.36-91.735-23.040-130.135-23.040zM331.949 694.614l-55.040-17.92c-152.32-49.067-188.587-120.747-139.52-273.494l54.613-168.533c49.493-152.32 121.173-189.013 273.495-139.947l67.413 22.187c2.56 0.853 4.693 1.707 7.253 2.56l-45.227 10.667c-196.695 46.507-261.122 150.613-215.042 346.88l41.813 178.774c2.987 13.653 6.4 26.88 10.24 38.827z" />
<glyph unicode="&#xe90b;" glyph-name="date" d="M320.011 908.8v-38.4h383.999v38.4c0 21.208 17.193 38.4 38.4 38.4s38.4-17.192 38.4-38.4v-38.4h38.39c106.040 0 192-85.961 192-192v-537.6c0-106.040-85.96-192-192-192h-614.4c-106.039 0-192 85.96-192 192v537.6c0 106.039 85.961 192 192 192h38.411v38.4c0 21.208 17.192 38.4 38.4 38.4s38.4-17.192 38.4-38.4zM243.211 793.6h-38.411c-63.623 0-115.2-51.577-115.2-115.2v-64.011h844.8v64.011c0 63.623-51.579 115.2-115.2 115.2h-38.39v-38.4c0-21.208-17.193-38.4-38.4-38.4s-38.4 17.192-38.4 38.4v38.4h-383.999v-38.4c0-21.208-17.192-38.4-38.4-38.4s-38.4 17.192-38.4 38.4v38.4zM89.6 537.589v-396.789c0-63.621 51.577-115.2 115.2-115.2h614.4c63.621 0 115.2 51.579 115.2 115.2v396.789h-844.8z" />
<glyph unicode="&#xe90c;" glyph-name="faq" d="M630.187 117.333h-235.093c-18.773 0-42.667 2.133-58.453 18.347-15.36 15.787-14.933 35.413-14.507 48.64v37.973c-107.52 71.68-178.347 196.267-178.347 314.88 0 112.213 50.347 217.173 137.813 287.573s202.24 96.854 314.453 72.107c106.667-23.467 198.827-94.72 246.613-190.72 92.587-186.454 3.413-388.267-139.093-484.267v-32c0.427-12.373 0.853-34.987-16.64-52.907-13.227-12.8-32-19.627-56.747-19.627zM385.707 181.76c2.133 0 5.12-0.427 8.96-0.427h235.52c4.267 0 7.253 0.427 8.96 0.853 0 1.28 0 2.987 0 4.267v53.76c0 11.093 5.973 21.76 15.36 27.307 126.293 76.373 209.92 250.88 130.133 410.88-39.253 78.933-115.2 137.387-203.093 156.587-93.013 20.48-188.16-1.28-260.693-59.733s-113.92-145.067-113.92-238.080c0-118.614 81.92-221.014 162.987-270.080 9.813-5.973 15.36-16.213 15.36-27.307v-57.6c0.427 0 0.427 0 0.427-0.427zM661.333-10.667c-2.987 0-5.973 0.427-8.96 1.28-92.16 26.453-189.013 26.453-281.173 0-17.067-4.693-34.56 5.12-39.68 22.187s5.12 34.56 22.187 39.68c103.253 29.44 212.906 29.44 316.16 0 17.067-4.693 26.88-22.613 22.187-39.68-3.84-14.507-16.64-23.467-30.72-23.467z" />
<glyph unicode="&#xe90d;" glyph-name="hamberger" d="M810.667 501.333h-85.333c-103.253 0-160 56.747-160 160v85.333c0 103.253 56.747 160 160 160h85.333c103.253 0 160-56.747 160-160v-85.333c0-103.253-56.747-160-160-160zM725.333 842.667c-67.413 0-96-28.587-96-96v-85.333c0-67.413 28.587-96 96-96h85.333c67.413 0 96 28.587 96 96v85.333c0 67.413-28.587 96-96 96h-85.333zM298.667-10.667h-85.333c-103.253 0-160 56.747-160 160v85.333c0 103.253 56.747 160 160 160h85.333c103.253 0 160-56.747 160-160v-85.333c0-103.253-56.747-160-160-160zM213.333 330.667c-67.413 0-96-28.587-96-96v-85.333c0-67.413 28.587-96 96-96h85.333c67.413 0 96 28.587 96 96v85.333c0 67.413-28.587 96-96 96h-85.333zM256 501.333c-111.787 0-202.667 90.88-202.667 202.667s90.88 202.667 202.667 202.667c111.787 0 202.667-90.88 202.667-202.667s-90.88-202.667-202.667-202.667zM256 842.667c-76.373 0-138.667-62.293-138.667-138.667s62.293-138.667 138.667-138.667c76.373 0 138.667 62.293 138.667 138.667s-62.293 138.667-138.667 138.667zM768-10.667c-111.787 0-202.667 90.88-202.667 202.667s90.88 202.667 202.667 202.667c111.787 0 202.667-90.88 202.667-202.667s-90.88-202.667-202.667-202.667zM768 330.667c-76.373 0-138.667-62.293-138.667-138.667s62.293-138.667 138.667-138.667c76.373 0 138.667 62.293 138.667 138.667s-62.293 138.667-138.667 138.667z" />
<glyph unicode="&#xe90e;" glyph-name="home" d="M53.333 201.387c0-116.907 94.72-212.053 211.627-212.053h494.080c116.907 0 211.627 95.147 211.627 211.627v310.613c0 61.866-39.68 137.813-90.453 173.227l-263.68 184.747c-71.68 50.346-182.187 47.787-251.307-5.973l-229.973-179.2c-46.080-35.84-81.92-108.8-81.92-166.827v-316.16zM174.507 634.027l229.973 179.2c46.507 36.267 126.72 37.973 175.36 3.84l263.68-184.747c33.707-23.040 63.147-79.787 63.147-120.747v-310.613c0-81.493-66.133-147.627-147.627-147.627h-494.080c-81.493 0-147.627 66.56-147.627 148.053v316.16c0 38.4 26.88 92.587 57.173 116.48zM480 192v128c0 17.493 14.507 32 32 32s32-14.507 32-32v-128c0-17.493-14.507-32-32-32s-32 14.507-32 32z" />
<glyph unicode="&#xe90f;" glyph-name="insta" d="M770.458 788.132c-35.56 0-59.268-23.707-59.268-59.266s29.637-59.266 59.268-59.266c35.56 0 59.263 29.633 59.263 59.266s-23.703 59.266-59.263 59.266zM503.752 711.092c-136.311 0-248.917-112.604-248.917-248.916s112.606-248.915 248.917-248.915c136.313 0 248.915 112.602 248.915 248.915 5.928 136.311-106.679 248.916-248.915 248.916zM503.752 302.161c-88.898 0-160.018 71.119-160.018 160.016 0 88.898 71.119 160.017 160.018 160.017 88.896 0 160.016-71.119 160.016-160.017 0-88.896-71.119-160.016-160.016-160.016zM705.261-47.519h-403.006c-165.944 0-302.255 136.316-302.255 302.258v403.007c0 165.944 136.312 302.255 302.255 302.255h403.006c165.942 0 302.258-136.311 302.258-302.255v-403.007c0-165.942-136.316-302.258-302.258-302.258zM296.328 871.102c-118.531 0-207.43-94.825-207.43-207.43v-403.004c0-118.536 94.825-207.43 207.43-207.43h403.004c118.531 0 207.43 94.822 207.43 207.43v403.004c0 118.531-94.822 207.43-207.43 207.43h-403.004z" />
<glyph unicode="&#xe910;" glyph-name="like" d="M354.304 768c-120.585 0-204.971-114.237-204.971-224.213 0-54.43 21.37-107.648 55.352-157.713 33.962-50.035 79.726-95.718 126.391-134.583 46.583-38.797 93.475-70.31 129.152-92.122 17.826-10.893 32.755-19.311 43.337-24.951 3.281-1.749 6.106-3.213 8.435-4.386 2.33 1.173 5.154 2.637 8.435 4.386 10.581 5.641 25.51 14.059 43.337 24.951 35.678 21.811 82.569 53.325 129.152 92.122 46.665 38.865 92.429 84.548 126.391 134.583 33.98 50.065 55.351 103.283 55.351 157.713 0 109.977-84.386 224.213-204.971 224.213-69.457 0-114.846-34.372-141.478-65.531-4.053-4.742-9.98-7.471-16.218-7.471s-12.164 2.73-16.218 7.471c-26.633 31.159-72.022 65.531-141.478 65.531zM106.667 543.787c0 126.823 97.289 266.88 247.637 266.88 72.542 0 124.1-30.903 157.696-63.261 33.596 32.358 85.154 63.261 157.696 63.261 150.349 0 247.637-140.057 247.637-266.88 0-65.741-25.771-127.245-62.716-181.675-36.966-54.46-85.914-103.036-134.387-143.407-48.559-40.439-97.237-73.139-134.204-95.74-18.5-11.307-34.159-20.139-45.517-26.197-5.662-3.021-10.359-5.406-13.871-7.083-1.724-0.823-3.354-1.57-4.757-2.15-0.674-0.282-1.562-0.636-2.517-0.956-0.474-0.158-1.207-0.393-2.095-0.606-0.563-0.137-2.624-0.64-5.269-0.64-2.637 0-4.689 0.499-5.261 0.64h-0.009c-0.887 0.213-1.621 0.448-2.095 0.606-0.956 0.32-1.843 0.674-2.517 0.956-1.404 0.58-3.034 1.327-4.757 2.15-3.511 1.677-8.209 4.062-13.871 7.083-11.358 6.059-27.017 14.891-45.517 26.197-36.964 22.601-85.644 55.3-134.202 95.74-48.476 40.371-97.424 88.947-134.389 143.407-36.945 54.43-62.716 115.934-62.716 181.675z" />
<glyph unicode="&#xe911;" glyph-name="message" d="M330.667 512c0 17.673 14.327 32 32 32h298.667c17.675 0 32-14.327 32-32s-14.325-32-32-32h-298.667c-17.673 0-32 14.327-32 32zM121.372 820.281c44.142 44.142 106.022 68.040 177.294 68.040h426.667c71.27 0 133.154-23.897 177.294-68.040s68.039-106.022 68.039-177.294v-256.001c0-71.27-23.899-133.154-68.039-177.294-37.393-37.393-87.518-60.257-145.294-66.378v-60.541c0-59.847-66.571-94.885-115.854-62.060zM641.451 20.736l-181.788 120.917h-160.996c-71.272 0-133.152 23.899-177.294 68.039s-68.039 106.024-68.039 177.294v256.001c0 71.272 23.897 133.151 68.039 177.294zM166.628 775.026c-30.524-30.524-49.294-75.311-49.294-132.039v-256.001c0-56.73 18.77-101.513 49.294-132.039s75.311-49.294 132.039-49.294h170.667c6.306 0 12.472-1.86 17.723-5.353l189.893-126.316c7.037-4.688 16.384 0.381 16.384 8.789v90.88c0 17.675 14.325 32 32 32 56.73 0 101.513 18.768 132.039 49.294s49.294 75.31 49.294 132.039v256.001c0 56.728-18.768 101.515-49.294 132.039s-75.31 49.294-132.039 49.294h-426.667c-56.728 0-101.515-18.77-132.039-49.294z" />
<glyph unicode="&#xe912;" glyph-name="minus" d="M221.865 448.017c0 18.85 15.282 34.133 34.133 34.133h512.002c18.85 0 34.133-15.283 34.133-34.133s-15.283-34.133-34.133-34.133h-512.002c-18.851 0-34.133 15.283-34.133 34.133z" />
<glyph unicode="&#xe913;" glyph-name="search" d="M490.666 836.266c-202.652 0-366.934-164.281-366.934-366.933s164.282-366.934 366.934-366.934c202.653 0 366.934 164.28 366.934 366.934 0 202.652-164.28 366.933-366.934 366.933zM46.933 469.334c0 245.067 198.666 443.733 443.733 443.733s443.734-198.666 443.734-443.733c0-245.067-198.666-443.734-443.734-443.734s-443.733 198.666-443.733 443.734zM826.179 133.821c14.996 14.996 39.311 14.996 54.308 0l85.335-85.335c14.996-14.996 14.996-39.311 0-54.308s-39.311-14.996-54.308 0l-85.335 85.335c-14.996 14.996-14.996 39.311 0 54.308z" />
<glyph unicode="&#xe914;" glyph-name="note-book" d="M420.105 839.985c2.446 3.046 6.128 4.815 10.022 4.815h163.797c3.887 0 7.573-1.772 10.018-4.815 0.004-0.004-0.004 0.004 0 0l48.862-61.122v-32.196c0-7.057-5.743-12.8-12.8-12.8h-256.002c-7.057 0-12.8 5.743-12.8 12.8v32.19l48.902 61.128c0.003 0.003-0.003-0.003 0 0zM705.847 808.17l-55.275 69.146c-13.764 17.173-34.607 27.218-56.649 27.218h-163.797c-22.047 0-42.86-10.012-56.627-27.185l-55.486-69.357c-4.348-5.435-6.574-12.089-6.545-18.792v0.134h29.867l23.322-18.657 0.172 0.215c-5.468-6.956-13.959-11.424-23.494-11.424-11.481 0-21.946 6.581-26.919 16.929-1.958 4.075-2.929 8.45-2.947 12.804v-42.533c0-40.047 32.486-72.533 72.533-72.533h256.002c40.047 0 72.533 32.486 72.533 72.533v42.667c0 7.141-2.509 13.697-6.69 18.836zM371.203 789.334h-29.867v29.867c16.495 0 29.867-13.372 29.867-29.867zM140.802 704c0 63.642 51.558 115.2 115.2 115.2h85.333c16.495 0 29.867-13.372 29.867-29.867s-13.372-29.867-29.867-29.867h-85.333c-30.652 0-55.467-24.815-55.467-55.467v-554.667c0-30.652 24.815-55.467 55.467-55.467h511.998c30.652 0 55.467 24.815 55.467 55.467v554.667c0 30.652-24.815 55.467-55.467 55.467h-85.333c-16.495 0-29.867 13.372-29.867 29.867s13.372 29.867 29.867 29.867h85.333c63.642 0 115.204-51.558 115.204-115.2v-554.667c0-63.642-51.563-115.2-115.204-115.2h-511.998c-63.642 0-115.2 51.558-115.2 115.2v554.667zM311.469 490.667c0 16.495 13.372 29.867 29.867 29.867h341.331c16.495 0 29.867-13.372 29.867-29.867s-13.372-29.867-29.867-29.867h-341.331c-16.495 0-29.867 13.372-29.867 29.867zM311.469 277.333c0 16.495 13.372 29.867 29.867 29.867h341.331c16.495 0 29.867-13.372 29.867-29.867s-13.372-29.867-29.867-29.867h-341.331c-16.495 0-29.867 13.372-29.867 29.867z" />
<glyph unicode="&#xe915;" glyph-name="play" d="M232.727 688.54c0 67.598 75.136 107.19 131.966 72.349l385.808-236.678c-0.002 0.002 0.002 0 0 0 54.346-33.324 54.393-111.36-0.067-144.642-0.009-0.007-0.019-0.012-0.030-0.019l-385.69-236.644c-56.874-34.949-131.987 4.778-131.987 72.336v473.297zM340.359 721.21c-27.159 16.647-61.086-3.018-61.086-32.67v-473.297c0-29.691 33.955-49.343 61.070-32.68l385.806 236.712c24.751 15.116 24.783 50.076 0.026 65.254l-385.815 236.681c0.002 0-0.002 0.002 0 0z" />
<glyph unicode="&#xe916;" glyph-name="plus" d="M545.911 704c0 18.851-15.279 34.133-34.133 34.133-18.85 0-34.133-15.282-34.133-34.133v-221.849h-221.647c-18.851 0-34.133-15.283-34.133-34.133s15.282-34.133 34.133-34.133h221.647v-221.884c0-18.85 15.283-34.133 34.133-34.133 18.854 0 34.133 15.283 34.133 34.133v221.884h222.089c18.85 0 34.133 15.283 34.133 34.133s-15.283 34.133-34.133 34.133h-222.089v221.849z" />
<glyph unicode="&#xe917;" glyph-name="close" d="M833.293 724.039c12.497 12.497 12.497 32.758 0 45.255s-32.755 12.497-45.252 0l-276.041-276.038-276.039 276.038c-12.497 12.497-32.758 12.497-45.255 0s-12.497-32.758 0-45.255l276.038-276.039-276.038-276.041c-12.497-12.497-12.497-32.755 0-45.252s32.758-12.497 45.255 0l276.039 276.036 276.041-276.036c12.497-12.497 32.755-12.497 45.252 0s12.497 32.755 0 45.252l-276.036 276.041 276.036 276.039z" />
<glyph unicode="&#xe918;" glyph-name="reply" d="M440.889 718.087c0 20.205-23.625 31.141-39.033 18.057l-0.005-0.004-285.896-242.656c-10.9-9.221-11.205-25.961-0.577-35.593l0.002-0.002 285.854-259.119c15.268-13.818 39.654-2.958 39.654 17.556v145.448c0 13.090 10.613 23.706 23.704 23.706 178.752 0 346.37-48.031 449.413-179.109-7.316 112.122-56.212 201.725-130.606 264.949-81.215 69.020-194.031 107.532-318.807 107.532-13.091 0-23.704 10.613-23.704 23.703v115.532zM371.169 772.279c46.223 39.254 117.127 6.386 117.127-54.192v-92.262c125.085-4.592 240.114-45.561 325.8-118.381 91.455-77.719 148.275-190.777 148.275-330.701v-53.521c0-10.991-7.555-20.537-18.244-23.068-10.695-2.532-21.726 2.617-26.652 12.442-78.484 156.547-239.053 220.359-429.179 225.178v-121.446c0-61.69-73.178-94.066-118.876-52.702l-0.013 0.011-285.864 259.127c-0.001 0.001-0.002 0.002-0.002 0.002-31.839 28.856-31.014 79.133 1.773 106.893 0.007 0.007 0.015 0.013 0.023 0.019l285.833 242.602z" />
<glyph unicode="&#xe919;" glyph-name="send" d="M761.274 741.476c81.433 27.145 132.051 14.529 156.709-10.168 24.699-24.736 37.274-75.554 10.351-156.994l-128.778-386.328c-20.886-62.775-44.306-107.184-67.461-135.221-23.245-28.152-43.065-36.323-57.618-36.323s-34.374 8.172-57.618 36.323c-23.155 28.037-46.58 72.462-67.469 135.238l-34.292 102.875 159.429 159.871c13.312 13.349 13.279 34.959-0.070 48.271s-34.959 13.283-48.271-0.066l-162.931-163.385c-0.623-0.627-1.212-1.266-1.778-1.925l-86.609 28.869c-62.785 20.89-107.196 44.286-135.237 67.412-28.153 23.216-36.308 42.992-36.308 57.5 0 14.516 8.166 34.324 36.336 57.606 28.050 23.179 72.481 46.66 135.26 67.661l386.357 128.785zM993.149 552.88c30.401 91.933 24.556 175.174-26.857 226.664-51.458 51.535-134.644 57.35-226.607 26.696l-386.422-128.808c-67.147-22.461-120.177-49.273-157.092-79.78-36.797-30.409-61.115-67.687-61.115-110.228 0-42.553 24.329-79.811 61.142-110.17 36.927-30.45 89.966-57.172 157.116-79.516l98.48-32.829 32.834-98.497c22.344-67.15 49.099-120.189 79.589-157.114 30.401-36.819 67.699-61.125 110.26-61.125s79.856 24.306 110.26 61.125c30.491 36.93 57.246 89.973 79.593 157.131l128.819 386.451z" />
<glyph unicode="&#xe91a;" glyph-name="shop" d="M627.2-10.667h-230.4c-210.773 0-300.373 90.027-300.373 300.373v191.573c0 17.493 14.507 32 32 32s32-14.507 32-32v-191.573c0-174.507 61.867-236.373 236.373-236.373h229.973c174.507 0 236.373 61.867 236.373 236.373v191.573c0 17.493 14.507 32 32 32s32-14.507 32-32v-191.573c0.427-210.347-89.6-300.373-299.947-300.373zM512 416c-46.933 0-89.6 18.347-119.893 52.053s-44.373 77.653-39.68 124.587l28.587 285.013c1.707 16.213 15.36 29.013 32 29.013h199.253c16.64 0 30.293-12.373 32-29.013l28.587-285.013c4.693-46.933-9.387-90.88-39.68-124.587-31.573-33.707-74.24-52.053-121.173-52.053zM441.6 842.667l-25.6-256.427c-2.987-28.587 5.547-55.467 23.467-75.093 36.267-40.107 108.8-40.107 145.067 0 17.92 20.053 26.453 46.933 23.467 75.093l-25.6 256.427h-140.8zM781.227 416c-86.613 0-163.84 69.973-172.8 156.16l-29.867 299.093c-0.853 8.96 2.133 17.92 8.107 24.747s14.507 10.667 23.893 10.667h130.133c125.44 0 183.893-52.48 201.387-181.333l11.947-118.613c5.12-50.347-10.24-98.133-43.093-134.4s-78.933-56.32-129.707-56.32zM645.973 842.667l26.453-264.107c5.547-53.333 55.040-98.56 108.8-98.56 32.427 0 61.44 12.373 82.347 34.987 20.48 22.613 29.867 52.907 26.88 85.333l-11.947 117.333c-13.227 96.427-44.373 125.013-137.813 125.013h-94.72zM240.641 416c-50.773 0-96.853 20.053-129.707 56.32s-48.213 84.053-43.093 134.4l11.52 117.333c17.92 130.133 76.373 182.613 201.813 182.613h130.133c8.96 0 17.492-3.84 23.892-10.667s8.96-15.787 8.107-24.747l-29.866-299.093c-8.96-86.187-86.187-156.16-172.8-156.16zM281.174 842.667c-93.44 0-124.587-28.16-138.24-125.867l-11.52-116.48c-3.413-32.427 6.4-62.72 26.88-85.333s49.493-34.987 82.347-34.987c53.76 0 103.68 45.227 108.8 98.56l26.453 264.107h-94.72zM618.667-10.667h-213.333c-17.493 0-32 14.507-32 32v106.667c0 89.6 49.067 138.667 138.667 138.667s138.667-49.067 138.667-138.667v-106.667c0-17.493-14.507-32-32-32zM437.333 53.333h149.333v74.667c0 53.76-20.907 74.667-74.667 74.667s-74.667-20.907-74.667-74.667v-74.667z" />
<glyph unicode="&#xe91b;" glyph-name="telegram" d="M845.819 94.052c-12.503-58.768-81.554-85.065-129.921-49.323l-182.384 134.739-89.952-87.513c-37.497-36.45-100.336-20.358-115.553 29.774l-68.545 225.66-201.413 62.84c-55.791 17.443-58.608 95.617-3.817 116.718l831.921 320.864c55.988 21.557 113.776-27.502 101.274-86.347l-141.609-667.412zM477.867 220.574l-50.319 37.171c-40.32 29.74-43.566 89.054-6.143 122.802 35.608 32.147 88.108 79.53 131.711 118.875l78.292 70.645c13.995 12.628 35.606 11.542 48.23-2.454 12.629-13.996 11.522-35.581-2.477-48.209l-78.312-70.663c-43.608-39.351-96.11-86.738-131.712-118.882-5.147-4.637-4.859-12.902 0.919-17.164l81.924-60.518c0.507-0.356 1.009-0.727 1.507-1.117l204.971-151.425c8.358-6.173 20.382-1.692 22.582 8.592l141.609 667.421c1.214 5.707-4.384 10.6-9.943 8.465l-814.687-314.218 200.977-62.703c5.397-1.684 10.078-4.584 13.836-8.305 3.94-3.872 6.995-8.758 8.713-14.414l73.783-242.903c0.093-0.307 0.186-0.478 0.228-0.541 0.026-0.044 0.051-0.078 0.078-0.107 0.020-0.024 0.042-0.049 0.065-0.068 0.118-0.112 0.364-0.273 0.743-0.371s0.68-0.073 0.846-0.034c0.075 0.020 0.144 0.044 0.221 0.088 0.072 0.039 0.228 0.137 0.458 0.361l81.898 79.677z" />
<glyph unicode="&#xe91c;" glyph-name="user" d="M427.529 745.809c-46.657-46.655-46.657-122.297 0-168.951 46.652-46.656 122.295-46.656 168.951 0 46.652 46.655 46.652 122.296 0 168.951-46.656 46.655-122.3 46.655-168.951 0zM385.289 788.047c69.982 69.982 183.445 69.982 253.427 0s69.982-183.445 0-253.427c-69.982-69.98-183.445-69.98-253.427 0-69.982 69.982-69.982 183.445 0 253.427zM512 413.525c-90.691 0-181.401-21.931-250.459-62.135-68.789-40.047-120.739-101.483-120.739-180.723v-42.667c0-40.047 32.486-72.533 72.533-72.533h597.331c40.047 0 72.538 32.486 72.538 72.533v42.667c0 79.241-51.951 140.676-120.742 180.723-69.056 40.205-159.765 62.135-250.462 62.135zM200.535 170.667c0 49.873 32.359 94.929 91.058 129.101 58.43 34.018 138.388 54.025 220.406 54.025 82.022 0 161.98-20.006 220.412-54.025 58.697-34.172 91.055-79.228 91.055-129.101v-42.667c0-7.057-5.743-12.8-12.8-12.8h-597.331c-7.057 0-12.8 5.743-12.8 12.8v42.667z" />
<glyph unicode="&#xe91d;" glyph-name="whatsapp" d="M45.512-52.622l68.266 256c-39.822 68.267-62.578 147.911-62.578 233.245 0 261.689 216.179 477.867 477.868 477.867s477.866-216.178 477.866-477.867-216.178-477.867-477.866-477.867c-79.644 0-159.289 22.756-227.556 56.889l-256-68.267zM318.578 112.356l17.066-11.378c62.578-34.133 130.844-56.889 199.111-56.889 216.178 0 386.845 176.356 386.845 386.845s-176.356 386.845-386.845 386.845c-216.178 0-386.843-176.356-386.843-386.845 0-68.267 17.067-142.223 56.889-199.112l11.378-17.067-39.823-142.222 142.222 39.822zM705.422 374.044c-17.067 11.378-45.511 22.755-68.267 17.067-17.067-5.689-28.444-34.133-39.822-51.2-5.689-5.689-11.378-5.689-22.756-5.689-68.266 28.444-119.467 73.955-153.601 130.844-5.689 11.378-5.689 17.067 0 28.444 11.378 11.378 22.756 28.444 28.444 45.511s-5.688 39.822-11.377 51.2c-11.378 22.756-17.067 51.2-39.823 62.578-17.067 11.378-45.511 5.689-56.889-11.378-28.444-22.756-39.821-56.889-39.821-96.711 0-11.378-0.002-22.756 5.687-28.444 5.689-22.756 17.067-45.511 28.444-68.267 11.378-17.067 17.067-28.444 28.444-45.511 34.133-51.199 79.646-91.022 130.846-119.466 28.444-17.067 51.2-28.444 79.644-39.822 34.133-11.378 62.578-22.756 96.711-17.067s73.956 28.444 85.333 62.578c5.689 11.378 5.689 22.756 5.689 34.133-5.689 22.756-34.133 39.822-56.889 51.2z" />
<glyph unicode="&#xe91e;" glyph-name="arrow-down" d="M318.706 555.961c12.497 12.497 32.758 12.497 45.255 0l148.039-148.038 148.041 148.038c12.497 12.497 32.755 12.497 45.252 0s12.497-32.756 0-45.254l-170.667-170.667c-12.497-12.497-32.755-12.497-45.252 0l-170.668 170.667c-12.497 12.497-12.497 32.757 0 45.254z" />
</font>
</defs>
</svg>
